<svg width="90" height="15" viewBox="0 0 90 15" fill="none" xmlns="http://www.w3.org/2000/svg">
<path d="M9.95 0.548V3.892H4.668V5.754H8.468V8.927H4.668V14H0.45V0.548H9.95ZM20.5747 11.967H16.0907L15.4257 14H10.9987L15.9197 0.548H20.7837L25.6857 14H21.2397L20.5747 11.967ZM19.5487 8.794L18.3327 5.051L17.1167 8.794H19.5487ZM32.477 14.133C30.8684 14.133 29.5384 13.7593 28.487 13.012C27.4484 12.252 26.8847 11.1437 26.796 9.687H31.28C31.3434 10.4597 31.6854 10.846 32.306 10.846C32.534 10.846 32.724 10.7953 32.876 10.694C33.0407 10.58 33.123 10.409 33.123 10.181C33.123 9.86433 32.952 9.611 32.61 9.421C32.268 9.21833 31.736 8.99033 31.014 8.737C30.1527 8.433 29.437 8.13533 28.867 7.844C28.3097 7.55267 27.8284 7.12833 27.423 6.571C27.0177 6.01367 26.8214 5.298 26.834 4.424C26.834 3.55 27.0557 2.809 27.499 2.201C27.955 1.58033 28.5694 1.11167 29.342 0.794999C30.1274 0.478333 31.0077 0.319999 31.983 0.319999C33.6297 0.319999 34.9344 0.699999 35.897 1.46C36.8724 2.22 37.3854 3.29033 37.436 4.671H32.895C32.8824 4.291 32.7874 4.01867 32.61 3.854C32.4327 3.68933 32.2174 3.607 31.964 3.607C31.7867 3.607 31.641 3.67033 31.527 3.797C31.413 3.911 31.356 4.07567 31.356 4.291C31.356 4.595 31.5207 4.84833 31.85 5.051C32.192 5.241 32.7304 5.47533 33.465 5.754C34.3137 6.07067 35.0104 6.37467 35.555 6.666C36.1124 6.95733 36.5937 7.36267 36.999 7.882C37.4044 8.40133 37.607 9.05367 37.607 9.839C37.607 10.6623 37.4044 11.4033 36.999 12.062C36.5937 12.708 36.0047 13.2147 35.232 13.582C34.4594 13.9493 33.541 14.133 32.477 14.133ZM52.104 0.548V14H47.886V8.756H43.877V14H39.659V0.548H43.877V5.393H47.886V0.548H52.104ZM58.7898 0.548V14H54.5718V0.548H58.7898ZM67.8198 14.133C66.5532 14.133 65.3878 13.8353 64.3238 13.24C63.2725 12.6447 62.4365 11.8213 61.8158 10.77C61.1952 9.71867 60.8848 8.53433 60.8848 7.217C60.8848 5.89967 61.1952 4.71533 61.8158 3.664C62.4365 2.61267 63.2725 1.79567 64.3238 1.213C65.3878 0.617666 66.5532 0.319999 67.8198 0.319999C69.0865 0.319999 70.2455 0.617666 71.2968 1.213C72.3482 1.79567 73.1778 2.61267 73.7858 3.664C74.4065 4.71533 74.7168 5.89967 74.7168 7.217C74.7168 8.53433 74.4065 9.71867 73.7858 10.77C73.1778 11.8213 72.3418 12.6447 71.2778 13.24C70.2265 13.8353 69.0738 14.133 67.8198 14.133ZM67.8198 10.2C68.6558 10.2 69.3018 9.934 69.7578 9.402C70.2138 8.85733 70.4418 8.129 70.4418 7.217C70.4418 6.29233 70.2138 5.564 69.7578 5.032C69.3018 4.48733 68.6558 4.215 67.8198 4.215C66.9712 4.215 66.3188 4.48733 65.8628 5.032C65.4068 5.564 65.1788 6.29233 65.1788 7.217C65.1788 8.129 65.4068 8.85733 65.8628 9.402C66.3188 9.934 66.9712 10.2 67.8198 10.2ZM89.7095 14H85.4915L81.0265 7.236V14H76.8085V0.548H81.0265L85.4915 7.426V0.548H89.7095V14Z" fill="black"/>
</svg>
