<svg width="17" height="17" viewBox="0 0 17 17" fill="none" xmlns="http://www.w3.org/2000/svg">
<path d="M16.4523 2.27174C11.5277 0.52107 6.17495 0.376473 1.16302 1.85873C0.963802 1.9064 0.776232 1.99373 0.61151 2.1155C0.446788 2.23727 0.308292 2.39098 0.204291 2.56746C0.10029 2.74394 0.0329167 2.93956 0.00619382 3.14266C-0.020529 3.34575 -0.00605357 3.55215 0.048756 3.74952C0.323068 4.85038 0.723194 6.11521 1.20376 7.26196C1.21201 7.28877 1.2249 7.27588 1.2249 7.24907C1.15529 6.71127 1.56882 6.03219 2.3799 5.78521C6.27775 4.5447 10.4726 4.60024 14.3362 5.94351C14.4787 5.99225 14.6295 6.01197 14.7798 6.00149C14.93 5.99101 15.0767 5.95056 15.211 5.88251C15.3454 5.81446 15.4648 5.7202 15.5621 5.60528C15.6595 5.49036 15.7329 5.35711 15.7779 5.21338C16.2585 3.66651 16.4523 2.61618 16.5003 2.35321C16.5085 2.30423 16.4652 2.28566 16.4523 2.27226V2.27174ZM4.57079 5.67487C3.9804 5.7981 3.16416 5.99198 2.5516 6.19513C1.32699 6.61743 1.38371 8.10758 2.03597 8.58299C2.08393 8.30662 2.3799 7.93073 2.7099 7.80388C3.93244 7.32332 5.24522 7.03612 6.57244 6.91752C5.89801 6.64373 5.24007 6.25134 4.57955 5.67435L4.57079 5.67487ZM14.3197 8.65827C12.5603 7.83162 10.6531 7.36606 8.71074 7.2891C6.76837 7.21214 4.83028 7.52534 3.01102 8.21019C2.42785 8.43037 2.06279 9.13987 2.42785 9.81327C3.0656 10.9663 3.78935 12.0696 4.59296 13.1138C4.47746 12.7137 4.68165 11.9727 5.4654 11.7304C7.63308 11.0642 9.90751 11.3467 11.4193 11.9588C11.8463 12.1305 12.4506 12.0263 12.7893 11.519C13.3671 10.629 13.8925 9.7062 14.363 8.75521C14.3842 8.71241 14.363 8.68044 14.3197 8.65827ZM10.8073 14.0001C10.1732 13.6799 9.59324 13.2622 9.08869 12.7621C8.85511 12.5286 8.51119 12.1929 8.14871 11.7928C7.32113 11.7928 6.51779 11.8758 5.65876 12.1501C4.86108 12.3996 4.78632 13.3211 5.1354 13.8016C5.72579 14.5374 6.13983 14.9345 6.80035 15.6171C7.15039 15.9605 7.62046 16.1539 8.11077 16.1563C8.60109 16.1587 9.07303 15.9699 9.42643 15.63C9.94205 15.1144 10.2592 14.7705 10.8418 14.11C10.8764 14.0749 10.863 14.0136 10.8068 14.0001H10.8073Z" fill="black"/>
</svg>
